#N canvas 1920 23 640 979 12;
#X obj 113 346 mrpeach/udpsend;
#X msg 113 175 connect localhost 3000;
#X msg 133 205 disconnect;
#X msg 145 283 send /year \$1;
#X obj 145 307 mrpeach/packOSC;
#X obj 400 105 hsl 128 25 1970 2019 0 1 empty empty YEAR -2 -8 0 10
-262130 -1 -1 4800 1;
#X obj 145 258 r year;
#X obj 113 104 loadbang;
#X obj 397 135 i;
#X floatatom 397 159 5 0 0 0 - - -;
#X obj 171 518 mrpeach/unpackOSC;
#X obj 450 255 hsl 128 25 1 25 0 1 empty empty COUNTRY_ID -2 -8 0 10
-262130 -1 -1 3700 1;
#X obj 447 285 i;
#X floatatom 447 309 5 0 0 0 - - -;
#X obj 285 307 mrpeach/packOSC;
#X obj 285 257 r country_id;
#X obj 447 353 s country_id;
#X obj 171 563 s chemicals;
#X obj 61 678 r chemicals;
#X obj 447 332 change;
#X obj 679 563 s country;
#X msg 285 283 send /country_id \$1;
#X obj 92 794 print phosporus;
#X obj 156 770 print iron;
#X obj 397 182 s year;
#X text 452 182 don't use change here in case country has changed;
#X obj 171 494 mrpeach/udpreceive localhost 8000;
#X obj 61 754 print carbon;
#X obj 61 705 unpack f f f f;
#X obj 124 821 print nitrogen;
#X obj 171 541 mrpeach/routeOSC /chemicals, f 73;
#X obj 669 645 r country;
#X connect 1 0 0 0;
#X connect 2 0 0 0;
#X connect 3 0 4 0;
#X connect 4 0 0 0;
#X connect 5 0 8 0;
#X connect 6 0 3 0;
#X connect 7 0 1 0;
#X connect 8 0 9 0;
#X connect 9 0 24 0;
#X connect 10 0 30 0;
#X connect 11 0 12 0;
#X connect 12 0 13 0;
#X connect 13 0 19 0;
#X connect 14 0 0 0;
#X connect 15 0 21 0;
#X connect 18 0 28 0;
#X connect 19 0 16 0;
#X connect 21 0 14 0;
#X connect 26 0 10 0;
#X connect 28 0 27 0;
#X connect 28 1 22 0;
#X connect 28 2 29 0;
#X connect 28 3 23 0;
#X connect 30 0 17 0;
#X connect 30 1 20 0;
