#N canvas 960 23 960 566 12;
#X obj 113 346 mrpeach/udpsend;
#X msg 113 175 connect localhost 3000;
#X msg 133 205 disconnect;
#X msg 145 283 send /year \$1;
#X obj 145 307 mrpeach/packOSC;
#X obj 400 105 hsl 128 25 1970 2019 0 1 empty empty YEAR -2 -8 0 10
-262130 -1 -1 5700 1;
#X obj 145 258 r year;
#X obj 113 104 loadbang;
#X obj 397 135 i;
#X floatatom 397 159 5 0 0 0 - - -;
#X obj 171 518 mrpeach/unpackOSC;
#X obj 61 730 print y;
#X obj 450 255 hsl 128 25 1 25 0 1 empty empty COUNTRY_ID -2 -8 0 10
-262130 -1 -1 0 1;
#X obj 447 285 i;
#X floatatom 447 309 5 0 0 0 - - -;
#X obj 285 307 mrpeach/packOSC;
#X obj 285 257 r country_id;
#X obj 447 353 s country_id;
#X obj 171 563 s chemicals;
#X obj 61 678 r chemicals;
#X obj 447 332 change;
#X obj 255 604 s country;
#X obj 61 705 unpack f s f f f f;
#X obj 85 789 print country;
#X msg 285 283 send /country_id \$1;
#X obj 110 820 print carbon;
#X obj 134 730 print phosporus;
#X obj 159 760 print nitrogen;
#X obj 184 789 print iron;
#X obj 397 182 s year;
#X text 452 182 don't use change here in case country has changed;
#X obj 171 541 mrpeach/routeOSC /chemicals /country /carbon /phosphorus
/nitrogen /iron, f 73;
#X floatatom 340 584 10 0 0 0 - - -;
#X floatatom 425 604 10 0 0 0 - - -;
#X floatatom 509 584 10 0 0 0 - - -;
#X floatatom 594 604 10 0 0 0 - - -;
#X obj 171 494 mrpeach/udpreceive localhost 8000;
#X connect 1 0 0 0;
#X connect 2 0 0 0;
#X connect 3 0 4 0;
#X connect 4 0 0 0;
#X connect 5 0 8 0;
#X connect 6 0 3 0;
#X connect 7 0 1 0;
#X connect 8 0 9 0;
#X connect 9 0 29 0;
#X connect 10 0 31 0;
#X connect 12 0 13 0;
#X connect 13 0 14 0;
#X connect 14 0 20 0;
#X connect 15 0 0 0;
#X connect 16 0 24 0;
#X connect 19 0 22 0;
#X connect 20 0 17 0;
#X connect 22 0 11 0;
#X connect 22 1 23 0;
#X connect 22 2 25 0;
#X connect 22 3 26 0;
#X connect 22 4 27 0;
#X connect 22 5 28 0;
#X connect 24 0 15 0;
#X connect 31 0 18 0;
#X connect 31 1 21 0;
#X connect 31 2 32 0;
#X connect 31 3 33 0;
#X connect 31 4 34 0;
#X connect 31 5 35 0;
#X connect 36 0 10 0;
